<svg width="48" height="39" viewBox="0 0 48 39" fill="none" xmlns="http://www.w3.org/2000/svg">
<path d="M31.5616 4.53338L34.6743 10.7592C35.0938 11.6202 36.2198 12.4371 37.1691 12.6137L42.799 13.5409C46.3977 14.137 47.2366 16.7422 44.6535 19.3473L40.2599 23.7407C39.5314 24.4693 39.1121 25.9043 39.355 26.942L40.6132 32.373C41.6066 36.656 39.3108 38.3339 35.5356 36.082L30.2589 32.947C29.3095 32.373 27.7202 32.373 26.7708 32.947L21.4941 36.082C17.719 38.3118 15.4229 36.656 16.4164 32.373L17.6749 26.942C17.9177 25.9264 17.4982 24.4914 16.7697 23.7407L12.3763 19.3473C9.79322 16.7643 10.6322 14.1591 14.2308 13.5409L19.8604 12.6137C20.8097 12.4592 21.9359 11.6202 22.3554 10.7592L25.4683 4.53338C27.1241 1.15554 29.8617 1.15554 31.5616 4.53338Z" stroke="#ABEFED" stroke-width="3" stroke-linecap="round" stroke-linejoin="round"/>
<path d="M15.2464 4.06982H2" stroke="#ABEFED" stroke-width="3" stroke-linecap="round" stroke-linejoin="round"/>
<path d="M8.62322 34.978H2" stroke="#ABEFED" stroke-width="3" stroke-linecap="round" stroke-linejoin="round"/>
<path d="M4.20774 19.5239H2" stroke="#ABEFED" stroke-width="3" stroke-linecap="round" stroke-linejoin="round"/>
</svg>
