<svg width="48" height="48" viewBox="0 0 48 48" fill="none" xmlns="http://www.w3.org/2000/svg">
<path d="M46 26.2V35C46 42.7 41.6 46 35 46H13C6.4 46 2 42.7 2 35V26.2C2 20.37 4.53 17.07 8.6 15.816C9.92 15.398 11.394 15.2 13 15.2H35C36.606 15.2 38.08 15.398 39.4 15.816C43.47 17.07 46 20.37 46 26.2Z" stroke="#ABEFED" stroke-width="3" stroke-miterlimit="10" stroke-linecap="round" stroke-linejoin="round"/>
<path d="M39.4 13.0001V15.8162C38.08 15.3982 36.606 15.2001 35 15.2001H13C11.394 15.2001 9.91998 15.3982 8.59998 15.8162V13.0001C8.59998 10.5801 10.58 8.6001 13 8.6001H35C37.42 8.6001 39.4 10.5801 39.4 13.0001Z" stroke="#ABEFED" stroke-width="3" stroke-miterlimit="10" stroke-linecap="round" stroke-linejoin="round"/>
<path d="M32.8 5.32202V8.6H15.2V5.32202C15.2 3.49602 16.696 2 18.522 2H29.478C31.304 2 32.8 3.49602 32.8 5.32202Z" stroke="#ABEFED" stroke-width="3" stroke-miterlimit="10" stroke-linecap="round" stroke-linejoin="round"/>
<path d="M17.554 40.3903C19.1579 40.3903 20.458 39.0901 20.458 37.4863C20.458 35.8825 19.1579 34.5823 17.554 34.5823C15.9502 34.5823 14.65 35.8825 14.65 37.4863C14.65 39.0901 15.9502 40.3903 17.554 40.3903Z" stroke="#ABEFED" stroke-width="3" stroke-linecap="round" stroke-linejoin="round"/>
<path d="M31.1498 35.5503V24.1763C31.1498 21.7563 29.6318 21.4043 28.0918 21.8443L22.2618 23.4283C21.2058 23.7143 20.4798 24.5503 20.4798 25.7603V27.7843V29.1483V37.4863" stroke="#ABEFED" stroke-width="3" stroke-linecap="round" stroke-linejoin="round"/>
<path d="M28.2458 38.4545C29.8496 38.4545 31.1498 37.1543 31.1498 35.5505C31.1498 33.9467 29.8496 32.6465 28.2458 32.6465C26.642 32.6465 25.3418 33.9467 25.3418 35.5505C25.3418 37.1543 26.642 38.4545 28.2458 38.4545Z" stroke="#ABEFED" stroke-width="3" stroke-linecap="round" stroke-linejoin="round"/>
<path d="M20.4798 29.1704L31.1498 26.2666" stroke="#ABEFED" stroke-width="3" stroke-linecap="round" stroke-linejoin="round"/>
</svg>
