<svg width="48" height="48" viewBox="0 0 48 48" fill="none" xmlns="http://www.w3.org/2000/svg">
<path d="M37.2574 13.3719C37.1252 13.3498 36.971 13.3498 36.8387 13.3719C33.7974 13.2617 31.3732 10.7713 31.3732 7.68594C31.3732 4.53443 33.9076 2 37.0591 2C40.2106 2 42.745 4.55647 42.745 7.68594C42.723 10.7713 40.2988 13.2617 37.2574 13.3719Z" stroke="#9ADFDD" stroke-width="3" stroke-linecap="round" stroke-linejoin="round"/>
<path d="M34.9863 29.4157C38.0056 29.9226 41.3334 29.3936 43.6695 27.8289C46.7769 25.7573 46.7769 22.3633 43.6695 20.2917C41.3113 18.727 37.9394 18.1981 34.9202 18.727" stroke="#9ADFDD" stroke-width="3" stroke-linecap="round" stroke-linejoin="round"/>
<path d="M10.7417 13.3719C10.874 13.3498 11.0282 13.3498 11.1605 13.3719C14.2018 13.2617 16.626 10.7713 16.626 7.68594C16.626 4.53443 14.0916 2 10.9401 2C7.78858 2 5.25415 4.55647 5.25415 7.68594C5.27619 10.7713 7.70043 13.2617 10.7417 13.3719Z" stroke="#9ADFDD" stroke-width="3" stroke-linecap="round" stroke-linejoin="round"/>
<path d="M13.0137 29.4157C9.99447 29.9226 6.66665 29.3936 4.33057 27.8289C1.22314 25.7573 1.22314 22.3633 4.33057 20.2917C6.68869 18.727 10.0606 18.1981 13.0799 18.727" stroke="#9ADFDD" stroke-width="3" stroke-linecap="round" stroke-linejoin="round"/>
<path d="M24.0345 29.8346C23.9022 29.8125 23.748 29.8125 23.6157 29.8346C20.5744 29.7244 18.1501 27.234 18.1501 24.1486C18.1501 20.9971 20.6846 18.4626 23.8361 18.4626C26.9876 18.4626 29.5221 21.0192 29.5221 24.1486C29.5 27.234 27.0758 29.7464 24.0345 29.8346Z" stroke="#9ADFDD" stroke-width="3" stroke-linecap="round" stroke-linejoin="round"/>
<path d="M30.449 36.7765C26.9449 34.4404 21.1487 34.4404 17.6226 36.7765C14.5151 38.8481 14.5151 42.242 17.6226 44.3136C21.1487 46.6718 26.9228 46.6718 30.449 44.3136" stroke="#9ADFDD" stroke-width="3" stroke-linecap="round" stroke-linejoin="round"/>
</svg>
