<svg width="40" height="43" viewBox="0 0 40 43" fill="none" xmlns="http://www.w3.org/2000/svg">
<path d="M10.554 42.3758C8.74929 42.3758 7.03598 41.9418 5.52827 41.0737C1.96459 39.0177 0 34.8373 0 29.3319V13.044C0 7.51572 1.96459 3.3581 5.52827 1.30213C9.09195 -0.753835 13.6836 -0.365486 18.4809 2.39865L32.5757 10.5311C37.3501 13.2953 40 17.0874 40 21.1994C40 25.3113 37.3729 29.1034 32.5757 31.8675L18.4809 40C15.7167 41.5763 13.0211 42.3758 10.554 42.3758ZM10.554 3.40379C9.32039 3.40379 8.22387 3.67792 7.24158 4.24902C4.77441 5.66535 3.42661 8.79499 3.42661 13.044V29.309C3.42661 33.558 4.77441 36.6648 7.24158 38.104C9.70874 39.5432 13.0897 39.132 16.7676 37.0075L30.8624 28.875C34.5403 26.7505 36.5734 24.032 36.5734 21.1765C36.5734 18.321 34.5403 15.6025 30.8624 13.478L16.7676 5.34554C14.5288 4.06627 12.4272 3.40379 10.554 3.40379Z" fill="white"/>
</svg>
