<svg width="41" height="40" viewBox="0 0 41 40" fill="none" xmlns="http://www.w3.org/2000/svg">
<path d="M23.6854 4.53338L26.7981 10.7592C27.2176 11.6202 28.3435 12.4371 29.2929 12.6137L34.9228 13.5409C38.5214 14.137 39.3604 16.7422 36.7773 19.3473L32.3837 23.7407C31.6551 24.4693 31.2359 25.9043 31.4787 26.942L32.7369 32.373C33.7304 36.656 31.4346 38.3339 27.6594 36.082L22.3826 32.947C21.4333 32.373 19.844 32.373 18.8946 32.947L13.6179 36.082C9.84275 38.3118 7.54672 36.656 8.5402 32.373L9.79864 26.942C10.0415 25.9264 9.622 24.4914 8.89344 23.7407L4.50006 19.3473C1.917 16.7643 2.75594 14.1591 6.35456 13.5409L11.9842 12.6137C12.9335 12.4592 14.0597 11.6202 14.4791 10.7592L17.5921 4.53338C19.2479 1.15554 21.9855 1.15554 23.6854 4.53338Z" stroke="white" stroke-width="4" stroke-linecap="round" stroke-linejoin="round"/>
</svg>
