<svg xmlns="http://www.w3.org/2000/svg" viewBox="0 0 199.49 199.51"><defs><style>.cls-1{fill:#abefed;fill-rule:evenodd;}</style></defs><g id="Camada_2" data-name="Camada 2"><g id="Camada_1-2" data-name="Camada 1"><path class="cls-1" d="M94.92,2.92C34.63,15-10.27,80.59,2,138.63c3.23,15.26,7.42,22.55,20.45,35.68,59.51,59.93,170,5.74,176.7-86.69q4.41-60.69-55.76-80.81C118.89-1.39,117.14-1.53,94.92,2.92ZM154,39.45c31.5,21.48,34.14,65.14,5.41,89.19-8.2,6.85-34.88,13.67-53.51,13.67-11.62,0-12.21.61-12.21,12.68,0,22-20.88,36.43-38.77,26.75-10.88-5.89-14.29-24-14.29-76,0-72.2,1.54-74.09,60.5-74.25C138,31.4,143.4,32.22,154,39.45Zm-10.59,11c9.19,15.23,8.66,26-1.8,36.57-8.11,8.21-11.11,8.79-45.73,8.79-44.92,0-48.17,2.1-48.17,31.1,0,18.07.52,19.42,5.84,14.95,3.95-3.31,20-5.49,49.31-6.71,42.09-1.75,43.8-2.14,54.21-12.22C183.43,97.38,177.93,53.65,147,42.74l-10.43-3.67ZM97.24,86.85c0,4,4.13,5.37,15.92,5.37s15.92-1.39,15.92-5.37-4.13-5.37-15.92-5.37S97.24,82.88,97.24,86.85Z"/></g></g></svg>