<?xml version="1.0" encoding="utf-8"?>
<!-- Generator: Adobe Illustrator 25.1.0, SVG Export Plug-In . SVG Version: 6.00 Build 0)  -->
<svg version="1.1" id="Camada_1" xmlns="http://www.w3.org/2000/svg" xmlns:xlink="http://www.w3.org/1999/xlink" x="0px" y="0px"
	 viewBox="0 0 1488 201" style="enable-background:new 0 0 1488 201;" xml:space="preserve">
<style type="text/css">
	.st0{fill-rule:evenodd;clip-rule:evenodd;fill:#ABEFED;}
</style>
<path class="st0" d="M263.6-216.6c-60.3,12.1-105.2,77.7-92.9,135.7c3.2,15.3,7.4,22.6,20.4,35.7c59.5,59.9,170,5.7,176.7-86.7
	c2.9-40.5-15.6-67.4-55.8-80.8C287.5-220.9,285.8-221,263.6-216.6z M659.6,3.4c-40.4,8.1-64.8,32.9-64.8,65.7
	c0,24.3,14.5,39.3,47.2,48.9c44.6,13,50.4,17.7,31.5,25.2c-9.2,3.7-53.9,0.2-73.4-5.7c-5.9-1.8-9.4,2-20.5,21.8
	c-10.2,18.3-12.3,24.7-8.8,26.8c9.1,5.7,43.3,10.9,71.4,10.8c60.5-0.2,94.3-26.9,94.1-74.2c-0.1-28.4-13.7-39.8-56.8-47.9
	c-29.3-5.5-34.7-8.6-29.5-17c6.9-11.2,41.9-12.6,72.2-2.8c5.1,1.6,9.1-2.7,19-20.4c6.9-12.4,11.4-23.6,10-24.9
	c-2.2-2.2-67-10.7-74-9.7C675.6,0.3,667.7,1.8,659.6,3.4z M31.1,11.3c-1.1,4.4-3,16.5-4.4,26.8l-2.4,18.8h42.2
	c28.1,0,43.6,1.4,46.4,4.3c6.1,6.2,5.2,18.8-1.9,27.5c-5.6,6.8-10.4,7.6-50.4,8.4l-44.2,0.9l-5.9,34c-3.2,18.7-6.9,40.9-8.2,49.4
	L0,196.8l25.9-1.1l25.9-1.1l2.9-21.9l2.9-21.9l24.2-1.8c57.9-4.2,98.3-52.6,84.8-101.5c-5.2-18.9-21.4-35.9-38.6-40.8
	c-6.9-1.9-31.1-3.5-53.7-3.5C34.5,3.3,33,3.5,31.1,11.3z M412.7,7.7c-2,6.4-9,41.8-9,45.8c0,2,20.5,3.4,49.2,3.4h49.2l9.2,11
	c11.7,14.1,12.2,33.5,1.2,49.8c-11.4,16.9-28.7,25-53.2,25h-20.6l2.4-16.1l2.4-16.1h-24.7H394l-5.7,33.1c-3.2,18.2-6.1,37.1-6.6,42
	l-0.9,8.9l51.5-0.1c51-0.1,51.8-0.2,75.1-11.8c26.2-13,43.6-31.7,56.1-60c9.7-21.9,10.6-58.6,1.9-75.4c-9.4-18-32.9-36.1-52.6-40.4
	C487.5,1.6,414.5,2,412.7,7.7z M791.2,11.3c-6.1,27.9-12.8,71.9-11.4,75.4c0.9,2.3,23.8,16.1,50.9,30.6l49.3,26.5l-4.1,24.5
	c-2.3,13.5-3.3,25.3-2.3,26.3c3,3.1,46.1,2.1,48-1.1c1-1.6,8.3-40.7,16.2-86.8c7.9-46.1,15.2-88.2,16.4-93.6l2-9.8h-24.8
	c-13.7,0-25.6,1.3-26.6,2.9c-1,1.6-4.4,18.9-7.7,38.5c-3.2,19.5-7.2,36.9-8.7,38.6c-1.6,1.7-14.3-2.2-28.3-8.8l-25.5-11.9l2.1-16.3
	c1.1-9,3.1-22.3,4.4-29.7l2.3-13.4h-25.2C795,3.3,792.9,3.9,791.2,11.3z M1166.2,7.7c-3.2,10.1-7.8,45.7-6.1,47.4
	c1,1,21.9,1.8,46.5,1.8c30,0,46.1,1.4,48.9,4.3c5.9,5.9,5.3,17.6-1.3,27.1c-5.2,7.6-7.9,8-53.4,8c-55.1,0-53.7-1.6-26.9,32
	c15.6,19.6,18.1,21.2,31.5,21.5c14.6,0.2,14.6,0.3,22.5,21.7l7.9,21.5h29.5h29.5l-12.6-28.3l-12.6-28.3l14.3-13.1
	c28.1-25.7,35.8-58,20.9-87.9c-5.8-11.7-12.2-18.1-23.7-24c-14.1-7.2-21-8.1-64.7-8.1C1180.5,3.3,1167.3,4.4,1166.2,7.7z
	 M1352.2,22.1c-2,10.3-6.1,33.3-9.2,51c-3.1,17.7-6.4,36.6-7.5,42l-1.9,9.8h44.1h44.1l3.9-22.7c2.2-12.5,3.9-23.7,3.9-25
	c0-1.3-7.9-2.4-17.7-2.4c-17.6,0-19.6-1.5-15.5-12.2c1.8-4.7,8.9-5.7,42-5.7h39.8l2.3-15.2c1.3-8.4,3.2-20.4,4.4-26.8l2.1-11.6
	h-65.6h-65.6L1352.2,22.1z M1037,11.3c0,2.5,4,26.9,8.8,54.4c4.9,27.4,8.8,51.2,8.8,52.8c0,1.6-16.7,2.9-37,2.9h-37l-17.8,33.1
	c-9.8,18.2-17.8,35.2-17.8,37.7c0,3.5,6.4,4.4,25.6,3.6c25.6-1.1,25.6-1.1,32.7-14.5l7.1-13.4l23.4,0l23.4,0l2.3,14.3l2.3,14.3h26.9
	h26.9l-1.9-9.8c-1-5.4-8.8-48.1-17.2-94.8l-15.4-85l-22.1,0C1043.7,6.8,1037,8.2,1037,11.3z M322.6-180
	c31.5,21.5,34.1,65.1,5.4,89.2c-8.2,6.9-34.9,13.7-53.5,13.7c-11.6,0-12.2,0.6-12.2,12.7c0,22-20.9,36.4-38.8,26.7
	c-10.9-5.9-14.3-24-14.3-76c0-72.2,1.5-74.1,60.5-74.3C306.6-188.1,312-187.3,322.6-180z M312.1-169.1c9.2,15.2,8.7,26-1.8,36.6
	c-8.1,8.2-11.1,8.8-45.7,8.8c-44.9,0-48.2,2.1-48.2,31.1c0,18.1,0.5,19.4,5.8,15c3.9-3.3,20-5.5,49.3-6.7
	c42.1-1.7,43.8-2.1,54.2-12.2c26.4-25.5,20.9-69.3-10.1-80.2l-10.4-3.7L312.1-169.1z M265.9-132.7c0,4,4.1,5.4,15.9,5.4
	c11.8,0,15.9-1.4,15.9-5.4s-4.1-5.4-15.9-5.4C270-138,265.9-136.6,265.9-132.7z M1331.1,149.1c-1.8,3.4-4.5,15.5-5.8,26.8l-2.5,20.6
	h65.5h65.5l3.9-22.7c2.1-12.5,3.9-24.5,3.9-26.8c0-3-17.4-4.2-63.5-4.2C1341,142.8,1334,143.5,1331.1,149.1z"/>
</svg>
