<svg width="644" height="103" viewBox="0 0 644 103" fill="none" xmlns="http://www.w3.org/2000/svg">
<g filter="url(#filter0_ddd_68_547)">
<path fill-rule="evenodd" clip-rule="evenodd" d="M119.714 1.61936C93.9277 7.35006 74.7233 38.5137 79.9885 66.0846C81.3714 73.3296 83.1613 76.7966 88.7336 83.0303C114.188 111.499 161.431 85.758 164.309 41.8549C165.569 22.6336 157.617 9.83472 140.46 3.46841C129.966 -0.425134 129.218 -0.493109 119.714 1.61936ZM286.116 1.62446C268.852 5.46022 258.388 17.2411 258.388 32.8476C258.388 44.3991 264.574 51.503 278.598 56.0576C297.661 62.2489 300.167 64.4786 292.053 68.0408C288.098 69.7776 268.995 68.1342 260.658 65.3403C258.155 64.5024 256.641 66.2954 251.904 75.7123C247.54 84.3831 246.639 87.4235 248.121 88.4653C251.996 91.1896 266.642 93.6607 278.647 93.6182C304.508 93.523 318.964 80.8567 318.875 58.3706C318.82 44.9021 313.006 39.4552 294.596 35.6348C282.067 33.0328 279.761 31.556 281.984 27.552C284.941 22.2224 299.888 21.5697 312.879 26.2009C315.047 26.9741 316.779 24.9042 320.993 16.507C323.939 10.6335 325.866 5.30387 325.276 4.66146C324.32 3.61967 296.61 -0.428528 293.625 0.0371341C292.968 0.139104 289.589 0.852889 286.116 1.62446ZM17.3143 5.37355C16.8544 7.47583 16.0132 13.2116 15.4428 18.1198L14.4064 27.0421H32.4549C44.4756 27.0421 51.1101 27.7236 52.3189 29.0815C54.9334 32.0182 54.5521 37.9988 51.4868 42.1336C49.0917 45.3644 47.031 45.7468 29.9266 46.1461L11.0142 46.5863L8.50267 62.7315C7.11979 71.6114 5.54174 82.1619 4.99555 86.1761L4 93.4754L15.0721 92.9741L26.1442 92.4727L27.3848 82.0701L28.6255 71.6692L38.997 70.8347C63.7496 68.8463 81.0597 45.8351 75.2725 22.6149C73.0333 13.6348 66.1386 5.5503 58.7522 3.24578C55.7973 2.32296 45.4515 1.56497 35.7638 1.55988C18.7517 1.54968 18.1223 1.68055 17.3143 5.37355ZM180.522 3.67405C179.646 6.73145 176.687 23.5123 176.687 25.4259C176.687 26.3708 185.438 27.0421 197.734 27.0421H218.781L222.699 32.2715C227.72 38.9743 227.92 48.1855 223.211 55.9352C218.321 63.9807 210.956 67.83 200.447 67.83H191.631L192.652 60.1823L193.673 52.5346H183.09H172.505L170.046 68.2549C168.694 76.9019 167.421 85.8872 167.22 88.224L166.852 92.4727L188.897 92.4319C210.713 92.3911 211.045 92.3334 221.008 86.8236C232.206 80.6323 239.664 71.7864 245.021 58.3468C249.173 47.9306 249.574 30.4989 245.846 22.5385C241.83 13.9679 231.755 5.37525 223.348 3.34945C212.493 0.735623 181.297 0.971856 180.522 3.67405ZM342.416 5.37355C339.786 18.6194 336.946 39.5249 337.547 41.2006C337.939 42.2934 347.743 48.8433 359.335 55.7585L380.411 68.328L378.637 79.9508C377.661 86.3426 377.213 91.9663 377.641 92.4472C378.942 93.9105 397.349 93.4227 398.184 91.9051C398.614 91.125 401.722 72.5801 405.093 50.6923C408.462 28.8045 411.611 8.79463 412.087 6.2233L412.954 1.54968H402.332C396.49 1.54968 391.365 2.1768 390.943 2.94327C390.521 3.70974 389.044 11.9319 387.662 21.2128C386.279 30.4955 384.598 38.7516 383.926 39.5623C383.253 40.3747 377.823 38.5069 371.814 35.3968L360.922 29.7562L361.812 22.0269C362.301 17.7748 363.15 11.4289 363.697 7.92279L364.694 1.54968H353.934C344.009 1.54968 343.115 1.8471 342.416 5.37355ZM502.794 3.67405C501.427 8.49382 499.478 25.363 500.196 26.1703C500.623 26.6495 509.573 27.0421 520.086 27.0421C532.935 27.0421 539.794 27.71 541.015 29.0815C543.521 31.8959 543.288 37.4498 540.475 41.9586C538.239 45.5462 537.089 45.7366 517.619 45.7366C494.06 45.7366 494.644 44.9667 506.096 60.9182C512.762 70.2042 513.816 71.003 519.573 71.1117C525.796 71.229 525.831 71.2664 529.214 81.426L532.609 91.623H545.228H557.846L552.452 78.1799L547.06 64.7369L553.178 58.5287C565.196 46.3331 568.488 30.9629 562.122 16.7806C559.634 11.2402 556.899 8.16752 551.966 5.37355C545.937 1.95756 542.981 1.54968 524.307 1.54968C508.91 1.54968 503.239 2.11052 502.794 3.67405ZM582.343 10.472C581.49 15.3802 579.719 26.2773 578.412 34.6899C577.103 43.1024 575.657 52.0876 575.198 54.6589L574.363 59.3325H593.241H612.119L613.786 48.5713C614.704 42.6537 615.455 37.3003 615.455 36.6749C615.455 36.0511 612.05 35.5396 607.89 35.5396C600.343 35.5396 599.508 34.8105 601.243 29.7307C602.006 27.4993 605.059 27.0421 619.205 27.0421H636.249L637.24 19.8193C637.785 15.8458 638.629 10.11 639.115 7.07305L640 1.54968H611.948H583.897L582.343 10.472ZM447.519 5.37355C447.523 6.5428 449.225 18.1657 451.301 31.2025C453.378 44.241 455.077 55.5206 455.077 56.2701C455.077 57.0195 447.956 57.633 439.253 57.633H423.429L415.826 73.3534C411.644 82.0004 408.211 90.0628 408.199 91.2729C408.181 92.9163 410.94 93.3462 419.144 92.9724C430.113 92.4727 430.113 92.4727 433.139 86.1047L436.165 79.735L446.184 79.7316L456.203 79.7265L457.171 86.5245L458.14 93.3225H469.658H481.177L480.385 88.6488C479.951 86.0775 476.632 65.8127 473.009 43.6122L466.425 3.25088L456.969 3.24918C450.408 3.24918 447.514 3.90009 447.519 5.37355ZM144.987 18.9746C158.46 29.1733 159.59 49.9139 147.299 61.3362C143.793 64.5925 132.383 67.83 124.415 67.83C119.443 67.83 119.193 68.1189 119.193 73.8547C119.193 84.3151 110.26 91.159 102.609 86.5602C97.9568 83.7628 96.4983 75.1481 96.4983 50.4697C96.4983 16.1756 97.158 15.2765 122.373 15.2C138.125 15.1507 140.448 15.5382 144.987 18.9746ZM140.458 24.1921C144.386 31.4268 144.159 36.5423 139.687 41.5643C136.217 45.463 134.934 45.7366 120.127 45.7366C100.918 45.7366 99.5243 46.7359 99.5243 60.512C99.5243 69.0928 99.7497 69.7352 102.025 67.6142C103.714 66.0387 110.563 65.0038 123.115 64.4242C141.113 63.5949 141.849 63.4096 146.3 58.6205C157.57 46.4895 155.219 25.7182 141.986 20.5364L137.528 18.7911L140.458 24.1921ZM120.706 41.4878C120.706 43.376 122.472 44.0371 127.515 44.0371C132.557 44.0371 134.323 43.376 134.323 41.4878C134.323 39.5997 132.557 38.9386 127.515 38.9386C122.472 38.9386 120.706 39.5997 120.706 41.4878ZM573.297 70.8041C572.52 72.4408 571.396 78.1766 570.8 83.5504L569.717 93.3225H597.725H625.735L627.403 82.5612C628.321 76.6436 629.072 70.9078 629.072 69.815C629.072 68.3756 621.61 67.83 601.891 67.83C577.551 67.83 574.563 68.141 573.297 70.8041Z" fill="#ABEFED"/>
</g>
<defs>
<filter id="filter0_ddd_68_547" x="0" y="0" width="644" height="103" filterUnits="userSpaceOnUse" color-interpolation-filters="sRGB">
<feFlood flood-opacity="0" result="BackgroundImageFix"/>
<feColorMatrix in="SourceAlpha" type="matrix" values="0 0 0 0 0 0 0 0 0 0 0 0 0 0 0 0 0 0 127 0" result="hardAlpha"/>
<feOffset dy="4"/>
<feGaussianBlur stdDeviation="2"/>
<feComposite in2="hardAlpha" operator="out"/>
<feColorMatrix type="matrix" values="0 0 0 0 0 0 0 0 0 0 0 0 0 0 0 0 0 0 0.25 0"/>
<feBlend mode="normal" in2="BackgroundImageFix" result="effect1_dropShadow_68_547"/>
<feColorMatrix in="SourceAlpha" type="matrix" values="0 0 0 0 0 0 0 0 0 0 0 0 0 0 0 0 0 0 127 0" result="hardAlpha"/>
<feOffset dy="4"/>
<feGaussianBlur stdDeviation="2"/>
<feComposite in2="hardAlpha" operator="out"/>
<feColorMatrix type="matrix" values="0 0 0 0 0 0 0 0 0 0 0 0 0 0 0 0 0 0 0.25 0"/>
<feBlend mode="normal" in2="effect1_dropShadow_68_547" result="effect2_dropShadow_68_547"/>
<feColorMatrix in="SourceAlpha" type="matrix" values="0 0 0 0 0 0 0 0 0 0 0 0 0 0 0 0 0 0 127 0" result="hardAlpha"/>
<feOffset dy="4"/>
<feGaussianBlur stdDeviation="2"/>
<feComposite in2="hardAlpha" operator="out"/>
<feColorMatrix type="matrix" values="0 0 0 0 0 0 0 0 0 0 0 0 0 0 0 0 0 0 0.25 0"/>
<feBlend mode="normal" in2="effect2_dropShadow_68_547" result="effect3_dropShadow_68_547"/>
<feBlend mode="normal" in="SourceGraphic" in2="effect3_dropShadow_68_547" result="shape"/>
</filter>
</defs>
</svg>
